{
  "accessors": [
    {
      "bufferView": 2,
      "componentType": 5126,
      "count": 514,
      "max": [
        4.5106000900268555,
        6.205170154571533,
        -0.007783649954944849
      ],
      "min": [
        2.5266900062561035,
        3.7771899700164795,
        -2.435770034790039
      ],
      "type": "VEC3"
    },
    {
      "bufferView": 2,
      "byteOffset": 6168,
      "componentType": 5126,
      "count": 514,
      "max": [
        0.969468355178833,
        0.9910215139389038,
        0.9910215139389038
      ],
      "min": [
        -0.9554847478866577,
        -0.9910215139389038,
        -0.9910215139389038
      ],
      "type": "VEC3"
    },
    {
      "bufferView": 1,
      "componentType": 5126,
      "count": 514,
      "max": [
        0.9790999889373779,
        -0.02090001106262207
      ],
      "min": [
        0.020899999886751175,
        -0.9790999889373779
      ],
      "type": "VEC2"
    },
    {
      "bufferView": 0,
      "componentType": 5125,
      "count": 1008,
      "type": "SCALAR"
    },
    {
      "bufferView": 2,
      "byteOffset": 12336,
      "componentType": 5126,
      "count": 946,
      "max": [
        4.5207600593566895,
        5.922210216522217,
        -0.2901949882507324
      ],
      "min": [
        2.5111000537872314,
        4.060029983520508,
        -2.1523799896240234
      ],
      "type": "VEC3"
    },
    {
      "bufferView": 2,
      "byteOffset": 23688,
      "componentType": 5126,
      "count": 946,
      "max": [
        0.9866712093353271,
        0.9910215139389038,
        0.9910215139389038
      ],
      "min": [
        -0.9898274540901184,
        -0.9910215139389038,
        -0.9910215139389038
      ],
      "type": "VEC3"
    },
    {
      "bufferView": 1,
      "byteOffset": 4112,
      "componentType": 5126,
      "count": 946,
      "max": [
        12.12559986114502,
        16.11639976501465
      ],
      "min": [
        11.87440013885498,
        15.883600234985352
      ],
      "type": "VEC2"
    },
    {
      "bufferView": 1,
      "byteOffset": 11680,
      "componentType": 5126,
      "count": 946,
      "max": [
        12.12559986114502,
        16.11639976501465
      ],
      "min": [
        11.87440013885498,
        15.883600234985352
      ],
      "type": "VEC2"
    },
    {
      "bufferView": 0,
      "byteOffset": 4032,
      "componentType": 5125,
      "count": 1728,
      "type": "SCALAR"
    },
    {
      "bufferView": 2,
      "byteOffset": 35040,
      "componentType": 5126,
      "count": 1529,
      "max": [
        4.117109775543213,
        5.582499980926514,
        -0.6401389837265015
      ],
      "min": [
        3.523390054702759,
        4.39985990524292,
        -1.8125699758529663
      ],
      "type": "VEC3"
    },
    {
      "bufferView": 2,
      "byteOffset": 53388,
      "componentType": 5126,
      "count": 1529,
      "max": [
        1.0,
        1.0,
        1.0
      ],
      "min": [
        -1.0,
        -1.0,
        -1.0
      ],
      "type": "VEC3"
    },
    {
      "bufferView": 1,
      "byteOffset": 19248,
      "componentType": 5126,
      "count": 1529,
      "max": [
        62.07389831542969,
        62.073299407958984
      ],
      "min": [
        61.92610168457031,
        61.926700592041016
      ],
      "type": "VEC2"
    },
    {
      "bufferView": 1,
      "byteOffset": 31480,
      "componentType": 5126,
      "count": 1529,
      "max": [
        62.07389831542969,
        62.073299407958984
      ],
      "min": [
        61.92610168457031,
        61.926700592041016
      ],
      "type": "VEC2"
    },
    {
      "bufferView": 0,
      "byteOffset": 10944,
      "componentType": 5125,
      "count": 3102,
      "type": "SCALAR"
    },
    {
      "bufferView": 2,
      "byteOffset": 71736,
      "componentType": 5126,
      "count": 947,
      "max": [
        -2.5111300945281982,
        5.922210216522217,
        -0.2917160093784332
      ],
      "min": [
        -4.5208001136779785,
        4.060029983520508,
        -2.153899908065796
      ],
      "type": "VEC3"
    },
    {
      "bufferView": 2,
      "byteOffset": 83100,
      "componentType": 5126,
      "count": 947,
      "max": [
        0.9898274540901184,
        0.9910215139389038,
        0.9910215139389038
      ],
      "min": [
        -0.9866712093353271,
        -0.9910215139389038,
        -0.9910215139389038
      ],
      "type": "VEC3"
    },
    {
      "bufferView": 1,
      "byteOffset": 43712,
      "componentType": 5126,
      "count": 947,
      "max": [
        26.125600814819336,
        10.116390228271484
      ],
      "min": [
        25.874399185180664,
        9.883609771728516
      ],
      "type": "VEC2"
    },
    {
      "bufferView": 1,
      "byteOffset": 51288,
      "componentType": 5126,
      "count": 947,
      "max": [
        26.125600814819336,
        10.116390228271484
      ],
      "min": [
        25.874399185180664,
        9.883609771728516
      ],
      "type": "VEC2"
    },
    {
      "bufferView": 0,
      "byteOffset": 23352,
      "componentType": 5125,
      "count": 1728,
      "type": "SCALAR"
    },
    {
      "bufferView": 2,
      "byteOffset": 94464,
      "componentType": 5126,
      "count": 1548,
      "max": [
        -3.5234200954437256,
        5.582499980926514,
        -0.6315310001373291
      ],
      "min": [
        -4.11713981628418,
        4.39985990524292,
        -1.8039599657058716
      ],
      "type": "VEC3"
    },
    {
      "bufferView": 2,
      "byteOffset": 113040,
      "componentType": 5126,
      "count": 1548,
      "max": [
        1.0,
        1.0,
        1.0
      ],
      "min": [
        -1.0,
        -1.0,
        -1.0
      ],
      "type": "VEC3"
    },
    {
      "bufferView": 1,
      "byteOffset": 58864,
      "componentType": 5126,
      "count": 1548,
      "max": [
        4.073919773101807,
        30.073299407958984
      ],
      "min": [
        3.9260799884796143,
        29.926700592041016
      ],
      "type": "VEC2"
    },
    {
      "bufferView": 1,
      "byteOffset": 71248,
      "componentType": 5126,
      "count": 1548,
      "max": [
        4.073919773101807,
        30.073299407958984
      ],
      "min": [
        3.9260799884796143,
        29.926700592041016
      ],
      "type": "VEC2"
    },
    {
      "bufferView": 0,
      "byteOffset": 30264,
      "componentType": 5125,
      "count": 3102,
      "type": "SCALAR"
    },
    {
      "bufferView": 2,
      "byteOffset": 131616,
      "componentType": 5126,
      "count": 515,
      "max": [
        -2.5267200469970703,
        6.205170154571533,
        -0.00834095012396574
      ],
      "min": [
        -4.510630130767822,
        3.7771899700164795,
        -2.4363300800323486
      ],
      "type": "VEC3"
    },
    {
      "bufferView": 2,
      "byteOffset": 137796,
      "componentType": 5126,
      "count": 515,
      "max": [
        0.9554847478866577,
        0.9910215139389038,
        0.9910215139389038
      ],
      "min": [
        -0.969468355178833,
        -0.9910215139389038,
        -0.9910215139389038
      ],
      "type": "VEC3"
    },
    {
      "bufferView": 1,
      "byteOffset": 83632,
      "componentType": 5126,
      "count": 515,
      "max": [
        0.9790999889373779,
        -0.02090001106262207
      ],
      "min": [
        0.020899999886751175,
        -0.9790999889373779
      ],
      "type": "VEC2"
    },
    {
      "bufferView": 0,
      "byteOffset": 42672,
      "componentType": 5125,
      "count": 1008,
      "type": "SCALAR"
    },
    {
      "bufferView": 2,
      "byteOffset": 143976,
      "componentType": 5126,
      "count": 963,
      "max": [
        3.5400400161743164,
        -4.728670120239258,
        -0.24110299348831177
      ],
      "min": [
        2.355839967727661,
        -6.289269924163818,
        -1.8016999959945679
      ],
      "type": "VEC3"
    },
    {
      "bufferView": 2,
      "byteOffset": 155532,
      "componentType": 5126,
      "count": 963,
      "max": [
        0.9929969906806946,
        0.9910215139389038,
        0.9910215139389038
      ],
      "min": [
        -0.9948774576187134,
        -0.9910215139389038,
        -0.9910497069358826
      ],
      "type": "VEC3"
    },
    {
      "bufferView": 1,
      "byteOffset": 87752,
      "componentType": 5126,
      "count": 963,
      "max": [
        60.09749984741211,
        54.09749984741211
      ],
      "min": [
        59.90250015258789,
        53.90250015258789
      ],
      "type": "VEC2"
    },
    {
      "bufferView": 1,
      "byteOffset": 95456,
      "componentType": 5126,
      "count": 963,
      "max": [
        60.09749984741211,
        54.09749984741211
      ],
      "min": [
        59.90250015258789,
        53.90250015258789
      ],
      "type": "VEC2"
    },
    {
      "bufferView": 0,
      "byteOffset": 46704,
      "componentType": 5125,
      "count": 1728,
      "type": "SCALAR"
    },
    {
      "bufferView": 2,
      "byteOffset": 167088,
      "componentType": 5126,
      "count": 1469,
      "max": [
        3.301759958267212,
        -5.013390064239502,
        -0.534371018409729
      ],
      "min": [
        3.1041901111602783,
        -6.004499912261963,
        -1.5169299840927124
      ],
      "type": "VEC3"
    },
    {
      "bufferView": 2,
      "byteOffset": 184716,
      "componentType": 5126,
      "count": 1469,
      "max": [
        1.0,
        1.0,
        1.0
      ],
      "min": [
        -1.0,
        -1.0,
        -1.0
      ],
      "type": "VEC3"
    },
    {
      "bufferView": 1,
      "byteOffset": 103160,
      "componentType": 5126,
      "count": 1469,
      "max": [
        44.0619010925293,
        28.061399459838867
      ],
      "min": [
        43.9380989074707,
        27.938600540161133
      ],
      "type": "VEC2"
    },
    {
      "bufferView": 1,
      "byteOffset": 114912,
      "componentType": 5126,
      "count": 1469,
      "max": [
        44.0619010925293,
        28.061399459838867
      ],
      "min": [
        43.9380989074707,
        27.938600540161133
      ],
      "type": "VEC2"
    },
    {
      "bufferView": 0,
      "byteOffset": 53616,
      "componentType": 5125,
      "count": 3102,
      "type": "SCALAR"
    },
    {
      "bufferView": 2,
      "byteOffset": 202344,
      "componentType": 5126,
      "count": 503,
      "max": [
        3.5315001010894775,
        -4.491559982299805,
        -0.004440550226718187
      ],
      "min": [
        2.3688900470733643,
        -6.52632999420166,
        -2.039210081100464
      ],
      "type": "VEC3"
    },
    {
      "bufferView": 2,
      "byteOffset": 208380,
      "componentType": 5126,
      "count": 503,
      "max": [
        0.9840084910392761,
        0.9910215139389038,
        0.9910215139389038
      ],
      "min": [
        -0.9780507683753967,
        -0.9910215139389038,
        -0.9910215139389038
      ],
      "type": "VEC3"
    },
    {
      "bufferView": 1,
      "byteOffset": 126664,
      "componentType": 5126,
      "count": 503,
      "max": [
        0.9790999889373779,
        -0.02090001106262207
      ],
      "min": [
        0.020899999886751175,
        -0.9790999889373779
      ],
      "type": "VEC2"
    },
    {
      "bufferView": 0,
      "byteOffset": 66024,
      "componentType": 5125,
      "count": 1008,
      "type": "SCALAR"
    },
    {
      "bufferView": 2,
      "byteOffset": 214416,
      "componentType": 5126,
      "count": 980,
      "max": [
        -2.355839967727661,
        -4.728670120239258,
        -0.24238499999046326
      ],
      "min": [
        -3.5400400161743164,
        -6.289269924163818,
        -1.8029799461364746
      ],
      "type": "VEC3"
    },
    {
      "bufferView": 2,
      "byteOffset": 226176,
      "componentType": 5126,
      "count": 980,
      "max": [
        0.9948774576187134,
        0.9910215139389038,
        0.9910215139389038
      ],
      "min": [
        -0.9929969906806946,
        -0.9910215139389038,
        -0.9910215139389038
      ],
      "type": "VEC3"
    },
    {
      "bufferView": 1,
      "byteOffset": 130688,
      "componentType": 5126,
      "count": 980,
      "max": [
        44.09749984741211,
        30.09749984741211
      ],
      "min": [
        43.90250015258789,
        29.90250015258789
      ],
      "type": "VEC2"
    },
    {
      "bufferView": 1,
      "byteOffset": 138528,
      "componentType": 5126,
      "count": 980,
      "max": [
        44.09749984741211,
        30.09749984741211
      ],
      "min": [
        43.90250015258789,
        29.90250015258789
      ],
      "type": "VEC2"
    },
    {
      "bufferView": 0,
      "byteOffset": 70056,
      "componentType": 5125,
      "count": 1728,
      "type": "SCALAR"
    },
    {
      "bufferView": 2,
      "byteOffset": 237936,
      "componentType": 5126,
      "count": 1461,
      "max": [
        -3.1041901111602783,
        -5.013390064239502,
        -0.527163028717041
      ],
      "min": [
        -3.301759958267212,
        -6.004499912261963,
        -1.509719967842102
      ],
      "type": "VEC3"
    },
    {
      "bufferView": 2,
      "byteOffset": 255468,
      "componentType": 5126,
      "count": 1461,
      "max": [
        1.0,
        1.0,
        1.0
      ],
      "min": [
        -1.0,
        -1.0,
        -1.0
      ],
      "type": "VEC3"
    },
    {
      "bufferView": 1,
      "byteOffset": 146368,
      "componentType": 5126,
      "count": 1461,
      "max": [
        22.061899185180664,
        16.0614013671875
      ],
      "min": [
        21.938100814819336,
        15.938599586486816
      ],
      "type": "VEC2"
    },
    {
      "bufferView": 1,
      "byteOffset": 158056,
      "componentType": 5126,
      "count": 1461,
      "max": [
        22.061899185180664,
        16.0614013671875
      ],
      "min": [
        21.938100814819336,
        15.938599586486816
      ],
      "type": "VEC2"
    },
    {
      "bufferView": 0,
      "byteOffset": 76968,
      "componentType": 5125,
      "count": 3102,
      "type": "SCALAR"
    },
    {
      "bufferView": 2,
      "byteOffset": 273000,
      "componentType": 5126,
      "count": 501,
      "max": [
        -2.3688900470733643,
        -4.491559982299805,
        -0.00490248017013073
      ],
      "min": [
        -3.5315001010894775,
        -6.52632999420166,
        -2.039669990539551
      ],
      "type": "VEC3"
    },
    {
      "bufferView": 2,
      "byteOffset": 279012,
      "componentType": 5126,
      "count": 501,
      "max": [
        0.9780507683753967,
        0.9910215139389038,
        0.9910215139389038
      ],
      "min": [
        -0.9840084910392761,
        -0.9910215139389038,
        -0.9910215139389038
      ],
      "type": "VEC3"
    },
    {
      "bufferView": 1,
      "byteOffset": 169744,
      "componentType": 5126,
      "count": 501,
      "max": [
        0.9790999889373779,
        -0.02090001106262207
      ],
      "min": [
        0.020899999886751175,
        -0.9790999889373779
      ],
      "type": "VEC2"
    },
    {
      "bufferView": 0,
      "byteOffset": 89376,
      "componentType": 5125,
      "count": 1008,
      "type": "SCALAR"
    },
    {
      "bufferView": 2,
      "byteOffset": 285024,
      "componentType": 5126,
      "count": 176,
      "max": [
        1.349120020866394,
        0.410194993019104,
        -2.2140300273895264
      ],
      "min": [
        -1.3541300296783447,
        -3.281719923019409,
        -2.661720037460327
      ],
      "type": "VEC3"
    },
    {
      "bufferView": 2,
      "byteOffset": 287136,
      "componentType": 5126,
      "count": 176,
      "max": [
        0.9276013970375061,
        0.963184118270874,
        0.770788848400116
      ],
      "min": [
        -0.9276013970375061,
        -0.637090802192688,
        -0.9999375939369202
      ],
      "type": "VEC3"
    },
    {
      "bufferView": 1,
      "byteOffset": 173752,
      "componentType": 5126,
      "count": 176,
      "max": [
        1.598080039024353,
        1.6479599475860596
      ],
      "min": [
        1.1365900039672852,
        1.1864709854125977
      ],
      "type": "VEC2"
    },
    {
      "bufferView": 1,
      "byteOffset": 175160,
      "componentType": 5126,
      "count": 176,
      "max": [
        1.598080039024353,
        1.6479599475860596
      ],
      "min": [
        1.1365900039672852,
        1.1864709854125977
      ],
      "type": "VEC2"
    },
    {
      "bufferView": 1,
      "byteOffset": 176568,
      "componentType": 5126,
      "count": 176,
      "max": [
        1.598080039024353,
        1.6479599475860596
      ],
      "min": [
        1.1365900039672852,
        1.1864709854125977
      ],
      "type": "VEC2"
    },
    {
      "bufferView": 1,
      "byteOffset": 177976,
      "componentType": 5126,
      "count": 176,
      "max": [
        1.598080039024353,
        1.6479599475860596
      ],
      "min": [
        1.1365900039672852,
        1.1864709854125977
      ],
      "type": "VEC2"
    },
    {
      "bufferView": 0,
      "byteOffset": 93408,
      "componentType": 5125,
      "count": 486,
      "type": "SCALAR"
    },
    {
      "bufferView": 2,
      "byteOffset": 289248,
      "componentType": 5126,
      "count": 1159,
      "max": [
        1.4004499912261963,
        -1.2917300462722778,
        -1.6429100036621094
      ],
      "min": [
        -1.4054499864578247,
        -3.460520029067993,
        -2.6564199924468994
      ],
      "type": "VEC3"
    },
    {
      "bufferView": 2,
      "byteOffset": 303156,
      "componentType": 5126,
      "count": 1159,
      "max": [
        1.0,
        0.9947224855422974,
        0.9991041421890259
      ],
      "min": [
        -1.0,
        -0.9947224855422974,
        -0.9947224855422974
      ],
      "type": "VEC3"
    },
    {
      "bufferView": 1,
      "byteOffset": 179384,
      "componentType": 5126,
      "count": 1159,
      "max": [
        34.17539978027344,
        48.13520050048828
      ],
      "min": [
        33.82460021972656,
        47.864498138427734
      ],
      "type": "VEC2"
    },
    {
      "bufferView": 1,
      "byteOffset": 188656,
      "componentType": 5126,
      "count": 1159,
      "max": [
        34.17539978027344,
        48.13520050048828
      ],
      "min": [
        33.82460021972656,
        47.864498138427734
      ],
      "type": "VEC2"
    },
    {
      "bufferView": 0,
      "byteOffset": 95352,
      "componentType": 5125,
      "count": 1830,
      "type": "SCALAR"
    },
    {
      "bufferView": 2,
      "byteOffset": 317064,
      "componentType": 5126,
      "count": 16346,
      "max": [
        2.369960069656372,
        8.064900398254395,
        -0.16337400674819946
      ],
      "min": [
        -2.3729500770568848,
        1.7141499519348145,
        -3.3175699710845947
      ],
      "type": "VEC3"
    },
    {
      "bufferView": 2,
      "byteOffset": 513216,
      "componentType": 5126,
      "count": 16346,
      "max": [
        1.0,
        1.0,
        1.0
      ],
      "min": [
        -1.0,
        -1.0,
        -1.0
      ],
      "type": "VEC3"
    },
    {
      "bufferView": 1,
      "byteOffset": 197928,
      "componentType": 5126,
      "count": 16346,
      "max": [
        3.5106000900268555,
        2.105599880218506
      ],
      "min": [
        -2.476900100708008,
        -3.296800136566162
      ],
      "type": "VEC2"
    },
    {
      "bufferView": 0,
      "byteOffset": 102672,
      "componentType": 5125,
      "count": 29679,
      "type": "SCALAR"
    },
    {
      "bufferView": 2,
      "byteOffset": 709368,
      "componentType": 5126,
      "count": 2643,
      "max": [
        1.146239995956421,
        1.2150599956512451,
        -0.2929140031337738
      ],
      "min": [
        -1.0730600357055664,
        -5.783400058746338,
        -2.6254498958587646
      ],
      "type": "VEC3"
    },
    {
      "bufferView": 2,
      "byteOffset": 741084,
      "componentType": 5126,
      "count": 2643,
      "max": [
        1.0,
        1.0,
        1.0
      ],
      "min": [
        -1.0,
        -1.0,
        -1.0
      ],
      "type": "VEC3"
    },
    {
      "bufferView": 1,
      "byteOffset": 328696,
      "componentType": 5126,
      "count": 2643,
      "max": [
        0.9879000186920166,
        0.0
      ],
      "min": [
        0.0,
        -0.993899941444397
      ],
      "type": "VEC2"
    },
    {
      "bufferView": 0,
      "byteOffset": 221388,
      "componentType": 5125,
      "count": 5370,
      "type": "SCALAR"
    },
    {
      "bufferView": 2,
      "byteOffset": 772800,
      "componentType": 5126,
      "count": 240,
      "max": [
        1.7340799570083618,
        -3.0160999298095703,
        -0.22773300111293793
      ],
      "min": [
        -1.7390799522399902,
        -6.689280033111572,
        -1.8783600330352783
      ],
      "type": "VEC3"
    },
    {
      "bufferView": 2,
      "byteOffset": 775680,
      "componentType": 5126,
      "count": 240,
      "max": [
        0.975421667098999,
        1.0,
        0.9999688863754272
      ],
      "min": [
        -0.975421667098999,
        -1.0,
        -0.9947122931480408
      ],
      "type": "VEC3"
    },
    {
      "bufferView": 1,
      "byteOffset": 349840,
      "componentType": 5126,
      "count": 240,
      "max": [
        0.9631999731063843,
        -0.1754000186920166
      ],
      "min": [
        0.940500020980835,
        -0.19609999656677246
      ],
      "type": "VEC2"
    },
    {
      "bufferView": 0,
      "byteOffset": 242868,
      "componentType": 5125,
      "count": 456,
      "type": "SCALAR"
    },
    {
      "bufferView": 2,
      "byteOffset": 778560,
      "componentType": 5126,
      "count": 232,
      "max": [
        2.2628400325775146,
        9.64186954498291,
        -2.5248498916625977
      ],
      "min": [
        -2.2674200534820557,
        6.671800136566162,
        -3.6377599239349365
      ],
      "type": "VEC3"
    },
    {
      "bufferView": 2,
      "byteOffset": 781344,
      "componentType": 5126,
      "count": 232,
      "max": [
        1.0,
        0.9665386080741882,
        0.9999688863754272
      ],
      "min": [
        -1.0,
        -0.9998751878738403,
        -1.0
      ],
      "type": "VEC3"
    },
    {
      "bufferView": 1,
      "byteOffset": 351760,
      "componentType": 5126,
      "count": 232,
      "max": [
        0.8327999711036682,
        -0.3173999786376953
      ],
      "min": [
        0.5583999752998352,
        -0.7826000452041626
      ],
      "type": "VEC2"
    },
    {
      "bufferView": 0,
      "byteOffset": 244692,
      "componentType": 5125,
      "count": 606,
      "type": "SCALAR"
    },
    {
      "bufferView": 2,
      "byteOffset": 784128,
      "componentType": 5126,
      "count": 14730,
      "max": [
        2.8465499877929688,
        6.1764397621154785,
        -0.1499290019273758
      ],
      "min": [
        -2.851609945297241,
        -6.373569965362549,
        -3.694780111312866
      ],
      "type": "VEC3"
    },
    {
      "bufferView": 2,
      "byteOffset": 960888,
      "componentType": 5126,
      "count": 14730,
      "max": [
        1.0,
        1.0,
        1.0
      ],
      "min": [
        -1.0,
        -1.0,
        -1.0
      ],
      "type": "VEC3"
    },
    {
      "bufferView": 1,
      "byteOffset": 353616,
      "componentType": 5126,
      "count": 14730,
      "max": [
        26.346900939941406,
        54.34629821777344
      ],
      "min": [
        7.64385986328125,
        51.88859939575195
      ],
      "type": "VEC2"
    },
    {
      "bufferView": 1,
      "byteOffset": 471456,
      "componentType": 5126,
      "count": 14730,
      "max": [
        26.346900939941406,
        54.34629821777344
      ],
      "min": [
        7.64385986328125,
        51.88859939575195
      ],
      "type": "VEC2"
    },
    {
      "bufferView": 0,
      "byteOffset": 247116,
      "componentType": 5125,
      "count": 25782,
      "type": "SCALAR"
    },
    {
      "bufferView": 2,
      "byteOffset": 1137648,
      "componentType": 5126,
      "count": 5286,
      "max": [
        2.948009967803955,
        8.083239555358887,
        -0.22209200263023376
      ],
      "min": [
        -2.9530200958251953,
        -9.641850471496582,
        -4.173089981079102
      ],
      "type": "VEC3"
    },
    {
      "bufferView": 2,
      "byteOffset": 1201080,
      "componentType": 5126,
      "count": 5286,
      "max": [
        1.0,
        1.0,
        1.0
      ],
      "min": [
        -1.0,
        -1.0,
        -1.0
      ],
      "type": "VEC3"
    },
    {
      "bufferView": 1,
      "byteOffset": 589296,
      "componentType": 5126,
      "count": 5286,
      "max": [
        0.9927999973297119,
        -0.004600048065185547
      ],
      "min": [
        0.0020000000949949026,
        -0.9996999502182007
      ],
      "type": "VEC2"
    },
    {
      "bufferView": 0,
      "byteOffset": 350244,
      "componentType": 5125,
      "count": 11424,
      "type": "SCALAR"
    }
  ],
  "asset": {
    "extras": {
      "author": "Dave Love SketchFab (https://sketchfab.com/Tyler_Dave)",
      "license": "CC-BY-4.0 (http://creativecommons.org/licenses/by/4.0/)",
      "source": "https://sketchfab.com/3d-models/1972-lotus-72d-3b1fafbc153746aebad4a245f4acdd52",
      "title": "1972 Lotus 72D"
    },
    "generator": "Sketchfab-0.3.0",
    "version": "2.0"
  },
  "bufferViews": [
    {
      "buffer": 0,
      "byteLength": 395940,
      "name": "floatBufferViews",
      "target": 34963
    },
    {
      "buffer": 0,
      "byteLength": 631584,
      "byteOffset": 395940,
      "byteStride": 8,
      "name": "floatBufferViews",
      "target": 34962
    },
    {
      "buffer": 0,
      "byteLength": 1264512,
      "byteOffset": 1027524,
      "byteStride": 12,
      "name": "floatBufferViews",
      "target": 34962
    }
  ],
  "buffers": [
    {
      "byteLength": 2292036,
      "uri": "scene.bin"
    }
  ],
  "extensionsUsed": [
    "KHR_materials_specular"
  ],
  "images": [
    {
      "uri": "textures/Meshpart1Mtl_baseColor.png"
    },
    {
      "uri": "textures/Meshpart2Mtl.004_baseColor.png"
    },
    {
      "uri": "textures/Meshpart4Mtl_baseColor.png"
    },
    {
      "uri": "textures/Meshpart5Mtl_baseColor.png"
    },
    {
      "uri": "textures/Meshpart6Mtl_baseColor.png"
    },
    {
      "uri": "textures/Meshpart7Mtl_baseColor.png"
    }
  ],
  "materials": [
    {
      "doubleSided": true,
      "extensions": {
        "KHR_materials_specular": {
          "specularColorFactor": [
            1.0,
            1.0,
            1.0
          ],
          "specularFactor": 0.1
        }
      },
      "name": "Meshpart1Mtl",
      "pbrMetallicRoughness": {
        "baseColorTexture": {
          "index": 0
        },
        "metallicFactor": 0.0,
        "roughnessFactor": 0.5
      }
    },
    {
      "doubleSided": true,
      "extensions": {
        "KHR_materials_specular": {
          "specularColorFactor": [
            1.0,
            1.0,
            1.0
          ],
          "specularFactor": 1.0
        }
      },
      "name": "Meshpart2Mtl",
      "pbrMetallicRoughness": {
        "baseColorFactor": [
          1.0,
          0.6653872982822718,
          0.1844749945004409,
          1.0
        ],
        "roughnessFactor": 0.19999999999999996
      }
    },
    {
      "doubleSided": true,
      "extensions": {
        "KHR_materials_specular": {
          "specularColorFactor": [
            1.0,
            1.0,
            1.0
          ],
          "specularFactor": 1.0
        }
      },
      "name": "Meshpart3Mtl",
      "pbrMetallicRoughness": {
        "baseColorTexture": {
          "index": 0
        },
        "metallicFactor": 0.0,
        "roughnessFactor": 0.19999999999999996
      }
    },
    {
      "doubleSided": true,
      "extensions": {
        "KHR_materials_specular": {
          "specularColorFactor": [
            1.0,
            1.0,
            1.0
          ],
          "specularFactor": 1.0
        }
      },
      "name": "Meshpart1Mtl.001",
      "pbrMetallicRoughness": {
        "baseColorFactor": [
          1.0,
          0.6653872982822718,
          0.1844749945004409,
          1.0
        ],
        "roughnessFactor": 0.19999999999999996
      }
    },
    {
      "doubleSided": true,
      "extensions": {
        "KHR_materials_specular": {
          "specularColorFactor": [
            1.0,
            1.0,
            1.0
          ],
          "specularFactor": 1.0
        }
      },
      "name": "Meshpart2Mtl.001",
      "pbrMetallicRoughness": {
        "baseColorTexture": {
          "index": 0
        },
        "metallicFactor": 0.0,
        "roughnessFactor": 0.19999999999999996
      }
    },
    {
      "doubleSided": true,
      "extensions": {
        "KHR_materials_specular": {
          "specularColorFactor": [
            1.0,
            1.0,
            1.0
          ],
          "specularFactor": 0.1
        }
      },
      "name": "Meshpart3Mtl.001",
      "pbrMetallicRoughness": {
        "baseColorTexture": {
          "index": 0
        },
        "metallicFactor": 0.0,
        "roughnessFactor": 0.5
      }
    },
    {
      "doubleSided": true,
      "extensions": {
        "KHR_materials_specular": {
          "specularColorFactor": [
            1.0,
            1.0,
            1.0
          ],
          "specularFactor": 1.0
        }
      },
      "name": "Meshpart1Mtl.002",
      "pbrMetallicRoughness": {
        "baseColorFactor": [
          1.0,
          0.6633731222424887,
          0.18283277268248568,
          1.0
        ],
        "roughnessFactor": 0.19999999999999996
      }
    },
    {
      "doubleSided": true,
      "extensions": {
        "KHR_materials_specular": {
          "specularColorFactor": [
            1.0,
            1.0,
            1.0
          ],
          "specularFactor": 1.0
        }
      },
      "name": "Meshpart2Mtl.002",
      "pbrMetallicRoughness": {
        "baseColorTexture": {
          "index": 0
        },
        "metallicFactor": 0.0,
        "roughnessFactor": 0.19999999999999996
      }
    },
    {
      "doubleSided": true,
      "extensions": {
        "KHR_materials_specular": {
          "specularColorFactor": [
            1.0,
            1.0,
            1.0
          ],
          "specularFactor": 0.1
        }
      },
      "name": "Meshpart3Mtl.002",
      "pbrMetallicRoughness": {
        "baseColorTexture": {
          "index": 0
        },
        "metallicFactor": 0.0,
        "roughnessFactor": 0.5
      }
    },
    {
      "doubleSided": true,
      "extensions": {
        "KHR_materials_specular": {
          "specularColorFactor": [
            1.0,
            1.0,
            1.0
          ],
          "specularFactor": 1.0
        }
      },
      "name": "Meshpart1Mtl.003",
      "pbrMetallicRoughness": {
        "baseColorFactor": [
          1.0,
          0.6653872982822718,
          0.1844749945004409,
          1.0
        ],
        "roughnessFactor": 0.19999999999999996
      }
    },
    {
      "doubleSided": true,
      "extensions": {
        "KHR_materials_specular": {
          "specularColorFactor": [
            1.0,
            1.0,
            1.0
          ],
          "specularFactor": 1.0
        }
      },
      "name": "Meshpart2Mtl.003",
      "pbrMetallicRoughness": {
        "baseColorTexture": {
          "index": 0
        },
        "metallicFactor": 0.0,
        "roughnessFactor": 0.19999999999999996
      }
    },
    {
      "doubleSided": true,
      "extensions": {
        "KHR_materials_specular": {
          "specularColorFactor": [
            1.0,
            1.0,
            1.0
          ],
          "specularFactor": 0.1
        }
      },
      "name": "Meshpart3Mtl.003",
      "pbrMetallicRoughness": {
        "baseColorTexture": {
          "index": 0
        },
        "metallicFactor": 0.0,
        "roughnessFactor": 0.5
      }
    },
    {
      "doubleSided": true,
      "extensions": {
        "KHR_materials_specular": {
          "specularColorFactor": [
            1.0,
            1.0,
            1.0
          ],
          "specularFactor": 1.0
        }
      },
      "name": "Meshpart1Mtl.004",
      "pbrMetallicRoughness": {
        "baseColorTexture": {
          "index": 0
        },
        "metallicFactor": 0.0,
        "roughnessFactor": 0.0
      }
    },
    {
      "doubleSided": true,
      "extensions": {
        "KHR_materials_specular": {
          "specularColorFactor": [
            1.0,
            1.0,
            1.0
          ],
          "specularFactor": 1.0
        }
      },
      "name": "Meshpart2Mtl.004",
      "pbrMetallicRoughness": {
        "baseColorTexture": {
          "index": 1
        },
        "metallicFactor": 0.0,
        "roughnessFactor": 0.09999999999999998
      }
    },
    {
      "doubleSided": true,
      "extensions": {
        "KHR_materials_specular": {
          "specularColorFactor": [
            1.0,
            1.0,
            1.0
          ],
          "specularFactor": 0.0952298
        }
      },
      "name": "Meshpart3Mtl.004",
      "pbrMetallicRoughness": {
        "baseColorTexture": {
          "index": 1
        },
        "roughnessFactor": 0.19999999999999996
      }
    },
    {
      "alphaMode": "BLEND",
      "doubleSided": true,
      "extensions": {
        "KHR_materials_specular": {
          "specularColorFactor": [
            1.0,
            1.0,
            1.0
          ],
          "specularFactor": 0.297318
        }
      },
      "name": "Meshpart4Mtl",
      "pbrMetallicRoughness": {
        "baseColorTexture": {
          "index": 2
        },
        "roughnessFactor": 0.19999999999999996
      }
    },
    {
      "alphaMode": "BLEND",
      "doubleSided": true,
      "extensions": {
        "KHR_materials_specular": {
          "specularColorFactor": [
            1.0,
            1.0,
            1.0
          ],
          "specularFactor": 0.297318
        }
      },
      "name": "Meshpart5Mtl",
      "pbrMetallicRoughness": {
        "baseColorTexture": {
          "index": 3
        },
        "metallicFactor": 0.0
      }
    },
    {
      "doubleSided": true,
      "extensions": {
        "KHR_materials_specular": {
          "specularColorFactor": [
            1.0,
            1.0,
            1.0
          ],
          "specularFactor": 0.0952298
        }
      },
      "name": "Meshpart6Mtl",
      "pbrMetallicRoughness": {
        "baseColorTexture": {
          "index": 4
        },
        "metallicFactor": 0.0
      }
    },
    {
      "doubleSided": true,
      "extensions": {
        "KHR_materials_specular": {
          "specularColorFactor": [
            1.0,
            1.0,
            1.0
          ],
          "specularFactor": 0.0
        }
      },
      "name": "Meshpart7Mtl",
      "pbrMetallicRoughness": {
        "baseColorTexture": {
          "index": 5
        },
        "roughnessFactor": 0.30000000000000004
      }
    },
    {
      "doubleSided": true,
      "extensions": {
        "KHR_materials_specular": {
          "specularColorFactor": [
            1.0,
            1.0,
            1.0
          ],
          "specularFactor": 1.0
        }
      },
      "name": "Meshpart8Mtl",
      "pbrMetallicRoughness": {
        "baseColorTexture": {
          "index": 4
        },
        "metallicFactor": 0.0,
        "roughnessFactor": 0.0
      }
    }
  ],
  "meshes": [
    {
      "name": "Object_0",
      "primitives": [
        {
          "attributes": {
            "NORMAL": 1,
            "POSITION": 0,
            "TEXCOORD_0": 2
          },
          "indices": 3,
          "material": 0,
          "mode": 4
        }
      ]
    },
    {
      "name": "Object_1",
      "primitives": [
        {
          "attributes": {
            "NORMAL": 5,
            "POSITION": 4,
            "TEXCOORD_0": 6,
            "TEXCOORD_1": 7
          },
          "indices": 8,
          "material": 1,
          "mode": 4
        }
      ]
    },
    {
      "name": "Object_2",
      "primitives": [
        {
          "attributes": {
            "NORMAL": 10,
            "POSITION": 9,
            "TEXCOORD_0": 11,
            "TEXCOORD_1": 12
          },
          "indices": 13,
          "material": 2,
          "mode": 4
        }
      ]
    },
    {
      "name": "Object_3",
      "primitives": [
        {
          "attributes": {
            "NORMAL": 15,
            "POSITION": 14,
            "TEXCOORD_0": 16,
            "TEXCOORD_1": 17
          },
          "indices": 18,
          "material": 3,
          "mode": 4
        }
      ]
    },
    {
      "name": "Object_4",
      "primitives": [
        {
          "attributes": {
            "NORMAL": 20,
            "POSITION": 19,
            "TEXCOORD_0": 21,
            "TEXCOORD_1": 22
          },
          "indices": 23,
          "material": 4,
          "mode": 4
        }
      ]
    },
    {
      "name": "Object_5",
      "primitives": [
        {
          "attributes": {
            "NORMAL": 25,
            "POSITION": 24,
            "TEXCOORD_0": 26
          },
          "indices": 27,
          "material": 5,
          "mode": 4
        }
      ]
    },
    {
      "name": "Object_6",
      "primitives": [
        {
          "attributes": {
            "NORMAL": 29,
            "POSITION": 28,
            "TEXCOORD_0": 30,
            "TEXCOORD_1": 31
          },
          "indices": 32,
          "material": 6,
          "mode": 4
        }
      ]
    },
    {
      "name": "Object_7",
      "primitives": [
        {
          "attributes": {
            "NORMAL": 34,
            "POSITION": 33,
            "TEXCOORD_0": 35,
            "TEXCOORD_1": 36
          },
          "indices": 37,
          "material": 7,
          "mode": 4
        }
      ]
    },
    {
      "name": "Object_8",
      "primitives": [
        {
          "attributes": {
            "NORMAL": 39,
            "POSITION": 38,
            "TEXCOORD_0": 40
          },
          "indices": 41,
          "material": 8,
          "mode": 4
        }
      ]
    },
    {
      "name": "Object_9",
      "primitives": [
        {
          "attributes": {
            "NORMAL": 43,
            "POSITION": 42,
            "TEXCOORD_0": 44,
            "TEXCOORD_1": 45
          },
          "indices": 46,
          "material": 9,
          "mode": 4
        }
      ]
    },
    {
      "name": "Object_10",
      "primitives": [
        {
          "attributes": {
            "NORMAL": 48,
            "POSITION": 47,
            "TEXCOORD_0": 49,
            "TEXCOORD_1": 50
          },
          "indices": 51,
          "material": 10,
          "mode": 4
        }
      ]
    },
    {
      "name": "Object_11",
      "primitives": [
        {
          "attributes": {
            "NORMAL": 53,
            "POSITION": 52,
            "TEXCOORD_0": 54
          },
          "indices": 55,
          "material": 11,
          "mode": 4
        }
      ]
    },
    {
      "name": "Object_12",
      "primitives": [
        {
          "attributes": {
            "NORMAL": 57,
            "POSITION": 56,
            "TEXCOORD_0": 58,
            "TEXCOORD_1": 59,
            "TEXCOORD_2": 60,
            "TEXCOORD_3": 61
          },
          "indices": 62,
          "material": 12,
          "mode": 4
        }
      ]
    },
    {
      "name": "Object_13",
      "primitives": [
        {
          "attributes": {
            "NORMAL": 64,
            "POSITION": 63,
            "TEXCOORD_0": 65,
            "TEXCOORD_1": 66
          },
          "indices": 67,
          "material": 13,
          "mode": 4
        }
      ]
    },
    {
      "name": "Object_14",
      "primitives": [
        {
          "attributes": {
            "NORMAL": 69,
            "POSITION": 68,
            "TEXCOORD_0": 70
          },
          "indices": 71,
          "material": 14,
          "mode": 4
        }
      ]
    },
    {
      "name": "Object_15",
      "primitives": [
        {
          "attributes": {
            "NORMAL": 73,
            "POSITION": 72,
            "TEXCOORD_0": 74
          },
          "indices": 75,
          "material": 15,
          "mode": 4
        }
      ]
    },
    {
      "name": "Object_16",
      "primitives": [
        {
          "attributes": {
            "NORMAL": 77,
            "POSITION": 76,
            "TEXCOORD_0": 78
          },
          "indices": 79,
          "material": 16,
          "mode": 4
        }
      ]
    },
    {
      "name": "Object_17",
      "primitives": [
        {
          "attributes": {
            "NORMAL": 81,
            "POSITION": 80,
            "TEXCOORD_0": 82
          },
          "indices": 83,
          "material": 17,
          "mode": 4
        }
      ]
    },
    {
      "name": "Object_18",
      "primitives": [
        {
          "attributes": {
            "NORMAL": 85,
            "POSITION": 84,
            "TEXCOORD_0": 86,
            "TEXCOORD_1": 87
          },
          "indices": 88,
          "material": 18,
          "mode": 4
        }
      ]
    },
    {
      "name": "Object_19",
      "primitives": [
        {
          "attributes": {
            "NORMAL": 90,
            "POSITION": 89,
            "TEXCOORD_0": 91
          },
          "indices": 92,
          "material": 19,
          "mode": 4
        }
      ]
    }
  ],
  "nodes": [
    {
      "children": [
        1
      ],
      "matrix": [
        -1.0,
        6.290011496532519e-32,
        -2.832769343193999e-16,
        0.0,
        -2.832769343193999e-16,
        -2.220446049250313e-16,
        1.0,
        0.0,
        0.0,
        1.0,
        2.220446049250313e-16,
        0.0,
        0.0,
        0.0,
        0.0,
        1.0
      ],
      "name": "Sketchfab_model"
    },
    {
      "children": [
        2
      ],
      "name": "root"
    },
    {
      "children": [
        3,
        7,
        11,
        15,
        19
      ],
      "matrix": [
        1.0,
        0.0,
        0.0,
        0.0,
        0.0,
        2.220446049250313e-16,
        1.0,
        0.0,
        0.0,
        -1.0,
        2.220446049250313e-16,
        0.0,
        0.0,
        0.0,
        0.0,
        1.0
      ],
      "name": "GLTF_SceneRootNode"
    },
    {
      "children": [
        4,
        5,
        6
      ],
      "matrix": [
        1.0,
        0.0,
        0.0,
        0.0,
        0.0,
        0.0,
        1.0,
        0.0,
        0.0,
        -1.0,
        0.0,
        0.0,
        0.0,
        0.0,
        0.0,
        1.0
      ],
      "name": "lotus_72d_wheel_rr_0"
    },
    {
      "mesh": 0,
      "name": "Object_4"
    },
    {
      "mesh": 1,
      "name": "Object_5"
    },
    {
      "mesh": 2,
      "name": "Object_6"
    },
    {
      "children": [
        8,
        9,
        10
      ],
      "matrix": [
        1.0,
        0.0,
        0.0,
        0.0,
        0.0,
        0.0,
        1.0,
        0.0,
        0.0,
        -1.0,
        0.0,
        0.0,
        0.0,
        0.0,
        0.0,
        1.0
      ],
      "name": "lotus_72d_wheel_rl_1"
    },
    {
      "mesh": 3,
      "name": "Object_8"
    },
    {
      "mesh": 4,
      "name": "Object_9"
    },
    {
      "mesh": 5,
      "name": "Object_10"
    },
    {
      "children": [
        12,
        13,
        14
      ],
      "matrix": [
        1.0,
        0.0,
        0.0,
        0.0,
        0.0,
        0.0,
        1.0,
        0.0,
        0.0,
        -1.0,
        0.0,
        0.0,
        0.0,
        0.0,
        0.0,
        1.0
      ],
      "name": "lotus_72d_wheel_fr_2"
    },
    {
      "mesh": 6,
      "name": "Object_12"
    },
    {
      "mesh": 7,
      "name": "Object_13"
    },
    {
      "mesh": 8,
      "name": "Object_14"
    },
    {
      "children": [
        16,
        17,
        18
      ],
      "matrix": [
        1.0,
        0.0,
        0.0,
        0.0,
        0.0,
        0.0,
        1.0,
        0.0,
        0.0,
        -1.0,
        0.0,
        0.0,
        0.0,
        0.0,
        0.0,
        1.0
      ],
      "name": "lotus_72d_wheel_fl_3"
    },
    {
      "mesh": 9,
      "name": "Object_16"
    },
    {
      "mesh": 10,
      "name": "Object_17"
    },
    {
      "mesh": 11,
      "name": "Object_18"
    },
    {
      "children": [
        20,
        21,
        22,
        23,
        24,
        25,
        26,
        27
      ],
      "matrix": [
        1.0,
        0.0,
        0.0,
        0.0,
        0.0,
        0.0,
        1.0,
        0.0,
        0.0,
        -1.0,
        0.0,
        0.0,
        0.0,
        0.0,
        0.0,
        1.0
      ],
      "name": "lotus_72d_body_4"
    },
    {
      "mesh": 12,
      "name": "Object_20"
    },
    {
      "mesh": 13,
      "name": "Object_21"
    },
    {
      "mesh": 14,
      "name": "Object_22"
    },
    {
      "mesh": 15,
      "name": "Object_23"
    },
    {
      "mesh": 16,
      "name": "Object_24"
    },
    {
      "mesh": 17,
      "name": "Object_25"
    },
    {
      "mesh": 18,
      "name": "Object_26"
    },
    {
      "mesh": 19,
      "name": "Object_27"
    }
  ],
  "samplers": [
    {
      "magFilter": 9729,
      "minFilter": 9987,
      "wrapS": 10497,
      "wrapT": 10497
    }
  ],
  "scene": 0,
  "scenes": [
    {
      "name": "Sketchfab_Scene",
      "nodes": [
        0
      ]
    }
  ],
  "textures": [
    {
      "sampler": 0,
      "source": 0
    },
    {
      "sampler": 0,
      "source": 1
    },
    {
      "sampler": 0,
      "source": 2
    },
    {
      "sampler": 0,
      "source": 3
    },
    {
      "sampler": 0,
      "source": 4
    },
    {
      "sampler": 0,
      "source": 5
    }
  ]
}
